<svg width="109" height="159" viewBox="0 0 109 159" fill="none" xmlns="http://www.w3.org/2000/svg">
<g clip-path="url(#clip0_27_280)">
<path d="M107.838 76.0422C106.997 67.1977 103.452 65.9485 100.418 54.076C97.444 42.4633 100.188 38.8456 95.8117 29.5614C92.9278 23.4453 89.8135 20.677 87.9609 19.3079C83.8252 16.2398 82.2431 17.3491 76.7755 14.8007C65.9607 9.76386 65.2998 1.69893 56.5377 1.08932C43.6099 0.189881 49.1075 6.45594 27.4877 16.0299C5.86797 25.6039 16.6128 31.9899 8.94219 52.1672C4.15561 64.7393 0.861074 72.4444 1.01128 80.8591C1.11142 86.7354 3.94532 93.5711 5.48744 98.1383C7.95083 105.394 8.68184 105.254 10.0938 110.53C12.5672 119.695 10.7947 121.723 13.5485 128.789C14.8003 132.017 16.3824 136.074 20.1977 139.522C25.5751 144.359 28.7795 142.031 35.5488 146.798C41.7774 151.175 40.9563 154.483 46.4238 156.761C52.3419 159.22 58.21 157.391 59.3416 157.021C65.7003 154.903 65.2797 151.155 72.77 146.288C80.6509 141.181 83.4347 143.81 89.0224 138.883C94.6401 133.916 96.4626 127.15 97.0835 124.841C98.6857 118.895 97.3539 116.827 98.4954 110.411C99.627 104.045 102.181 99.1177 104.253 95.8497C106.326 91.2326 108.609 84.257 107.838 76.0522V76.0422Z" stroke="url(#paint0_linear_27_280)" stroke-width="2" stroke-miterlimit="10"/>
<path opacity="0.92" d="M103.312 76.3319C102.541 68.237 99.2968 67.0977 96.523 56.2346C93.8092 45.6113 96.3127 42.2933 92.3072 33.7987C89.6735 28.2022 86.8196 25.6738 85.1273 24.4146C81.3421 21.6063 79.8901 22.6257 74.8832 20.2872C64.9896 15.6801 64.3887 8.30471 56.3677 7.74506C44.5414 6.92558 49.5683 12.652 29.7911 21.4165C10.0039 30.181 19.8374 36.0273 12.8178 54.4857C8.44174 65.9884 5.42759 73.044 5.55777 80.7392C5.64789 86.1158 8.24146 92.3718 9.65341 96.5492C11.9065 103.195 12.5774 103.065 13.8692 107.882C16.1323 116.267 14.5101 118.116 17.0235 124.592C18.1751 127.54 19.6171 131.257 23.1119 134.405C28.0287 138.833 30.9627 136.704 37.1613 141.061C42.8591 145.069 42.1081 148.097 47.115 150.176C52.5324 152.424 57.8998 150.755 58.9412 150.405C64.7592 148.467 64.3787 145.039 71.2382 140.592C78.4481 135.914 81.0016 138.323 86.1086 133.816C91.2457 129.279 92.918 123.073 93.4888 120.964C94.9508 115.527 93.7291 113.628 94.7806 107.762C95.812 101.936 98.1452 97.4287 100.048 94.4405C101.94 90.2132 104.033 83.8372 103.332 76.3219L103.312 76.3319Z" stroke="url(#paint1_linear_27_280)" stroke-width="1.91" stroke-miterlimit="10"/>
<path opacity="0.84" d="M98.786 76.6317C98.085 69.2863 95.151 68.2569 92.6275 58.4031C90.1641 48.7592 92.4372 45.7611 88.8022 38.046C86.4089 32.9691 83.8153 30.6706 82.2832 29.5313C78.8485 26.9829 77.5367 27.9023 72.9905 25.7937C64.0181 21.6063 63.4673 14.9205 56.1973 14.4108C45.4626 13.6713 50.0289 18.858 32.0842 26.813C14.1295 34.768 23.0617 40.0647 16.683 56.8141C12.7075 67.2476 9.97373 73.6536 10.0939 80.6392C10.174 85.5161 12.5272 91.1925 13.809 94.9801C15.8518 101.006 16.4627 100.886 17.6343 105.264C19.6871 112.869 18.2151 114.548 20.4982 120.424C21.5396 123.102 22.8515 126.47 26.0258 129.329C30.492 133.346 33.1556 131.407 38.7734 135.375C43.9405 139.012 43.2595 141.761 47.8058 143.64C52.7126 145.678 57.5893 144.159 58.5306 143.849C63.8078 142.091 63.4573 138.982 69.6859 134.945C76.2249 130.698 78.5381 132.896 83.1745 128.799C87.8309 124.681 89.343 119.055 89.8637 117.136C91.1955 112.199 90.084 110.48 91.0353 105.154C91.9766 99.8671 94.0895 95.7796 95.8119 93.0713C97.5342 89.2338 99.4268 83.4474 98.786 76.6417V76.6317Z" stroke="url(#paint2_linear_27_280)" stroke-width="1.82" stroke-miterlimit="10"/>
<path opacity="0.75" d="M94.2496 76.9215C93.6187 70.3257 90.9851 69.4063 88.722 60.5518C86.5089 51.8973 88.5518 49.199 85.2873 42.2833C83.1343 37.7262 80.8111 35.6675 79.4392 34.6381C76.355 32.3496 75.1733 33.179 71.0977 31.2802C63.0366 27.5226 62.546 21.5164 56.017 21.0667C46.3837 20.3971 50.4794 25.0642 34.3672 32.1997C18.255 39.3352 26.266 44.0922 20.5482 59.1327C16.9833 68.4968 14.5299 74.2432 14.64 80.5193C14.7201 84.8965 16.823 89.9933 17.9746 93.3912C19.8072 98.7978 20.3479 98.6978 21.4094 102.625C23.2519 109.451 21.9301 110.96 23.9829 116.227C24.9142 118.625 26.0958 121.653 28.9397 124.222C32.9452 127.83 35.3385 126.091 40.3855 129.648C45.0219 132.916 44.411 135.375 48.4966 137.074C52.9027 138.903 57.2787 137.543 58.1299 137.264C62.8664 135.685 62.556 132.886 68.1437 129.269C74.0218 125.461 76.0946 127.43 80.2503 123.752C84.4361 120.054 85.788 115.008 86.2586 113.289C87.4502 108.861 86.4589 107.312 87.31 102.535C88.1512 97.7884 90.0538 94.1207 91.5959 91.6922C93.1381 88.2444 94.8404 83.0577 94.2696 76.9415L94.2496 76.9215Z" stroke="url(#paint3_linear_27_280)" stroke-width="1.73" stroke-miterlimit="10"/>
<path opacity="0.67" d="M89.7235 77.2115C89.1727 71.3652 86.8295 70.5457 84.8267 62.7106C82.864 55.0455 84.6765 52.657 81.7826 46.5208C79.8799 42.4834 77.8171 40.6545 76.5954 39.7451C73.8617 37.7164 72.8202 38.4559 69.2052 36.767C62.0654 33.439 61.6348 28.1124 55.8469 27.7126C47.3151 27.123 50.9401 31.2504 36.6705 37.5764C22.3908 43.9025 29.4906 48.1198 24.4236 61.4314C21.2693 69.7262 19.0863 74.823 19.1864 80.3795C19.2565 84.2571 21.1191 88.7742 22.1405 91.7823C23.7627 96.5793 24.2434 96.4794 25.1847 99.9672C26.8169 106.013 25.6453 107.353 27.4678 112.02C28.299 114.148 29.3404 116.837 31.8639 119.105C35.4188 122.303 37.5317 120.764 41.9978 123.912C46.1135 126.8 45.5727 128.989 49.1777 130.488C53.0831 132.107 56.9584 130.908 57.7094 130.658C61.9052 129.259 61.6348 126.78 66.5816 123.572C71.7888 120.194 73.6213 121.943 77.3164 118.685C81.0215 115.407 82.2232 110.94 82.6437 109.411C83.7052 105.484 82.824 104.115 83.575 99.8872C84.3261 95.6899 86.0084 92.4319 87.3803 90.2733C88.7421 87.2252 90.2542 82.6181 89.7435 77.2015L89.7235 77.2115Z" stroke="url(#paint4_linear_27_280)" stroke-width="1.64" stroke-miterlimit="10"/>
<path opacity="0.59" d="M85.1873 77.5112C84.7066 72.4244 82.6638 71.7048 80.9214 64.8791C79.209 58.1933 80.7912 56.1146 78.2677 50.768C76.6054 47.2502 74.813 45.6612 73.7515 44.8617C71.3682 43.0928 70.457 43.7324 67.3127 42.2633C61.0941 39.3652 60.7136 34.7281 55.6666 34.3783C48.2264 33.8686 51.3907 37.4664 38.9536 42.9729C26.5165 48.4794 32.695 52.1571 28.2789 63.7598C25.5251 70.9953 23.6325 75.4325 23.7127 80.2694C23.7727 83.6473 25.395 87.5848 26.2862 90.2132C27.7082 94.3905 28.1187 94.3106 28.9398 97.3387C30.3618 102.615 29.3404 103.775 30.9226 107.842C31.6436 109.701 32.5548 112.039 34.7478 114.018C37.8421 116.806 39.6846 115.457 43.58 118.206C47.1649 120.724 46.6943 122.633 49.8386 123.942C53.2433 125.361 56.6179 124.302 57.2688 124.092C60.9239 122.873 60.6835 120.714 64.9995 117.916C69.5357 114.978 71.1379 116.497 74.3523 113.658C77.5868 110.8 78.6282 106.903 78.9887 105.574C79.91 102.156 79.1389 100.956 79.7998 97.2687C80.4507 93.611 81.9228 90.7728 83.1144 88.894C84.306 86.2357 85.6178 82.2282 85.1772 77.5012L85.1873 77.5112Z" stroke="url(#paint5_linear_27_280)" stroke-width="1.55" stroke-miterlimit="10"/>
<path opacity="0.51" d="M80.6609 77.8011C80.2503 73.4639 78.5079 72.8543 77.0259 67.0279C75.5739 61.3315 76.9157 59.5626 74.7628 55.0055C73.3508 52.0074 71.8187 50.6482 70.9075 49.9786C68.8747 48.4696 68.1036 49.0192 65.4199 47.77C60.1226 45.3016 59.7922 41.3441 55.4963 41.0443C49.1575 40.6045 51.8512 43.6726 41.2467 48.3697C30.6421 53.0667 35.9193 56.1947 32.1541 66.0885C29.8109 72.2546 28.1887 76.0323 28.2588 80.1597C28.3088 83.0378 29.6907 86.3957 30.4518 88.6343C31.6635 92.1921 32.0139 92.1221 32.7149 94.7105C33.9266 99.2077 33.0554 100.197 34.4072 103.665C35.0181 105.244 35.7992 107.243 37.6717 108.922C40.3054 111.3 41.8775 110.151 45.2021 112.489C48.2563 114.638 47.8557 116.257 50.5394 117.376C53.4434 118.585 56.3174 117.686 56.8782 117.506C59.9924 116.467 59.7922 114.628 63.4672 112.249C67.3326 109.741 68.6944 111.04 71.4382 108.622C74.192 106.183 75.0832 102.865 75.3936 101.736C76.1847 98.8179 75.5238 97.7986 76.0846 94.6605C76.6354 91.5425 77.8871 89.124 78.9085 87.525C79.9199 85.2565 81.0414 81.8386 80.6709 77.8211L80.6609 77.8011Z" stroke="url(#paint6_linear_27_280)" stroke-width="1.45" stroke-miterlimit="10"/>
<path opacity="0.43" d="M76.1348 78.1008C75.7943 74.513 74.3523 74.0134 73.1207 69.1964C71.919 64.4893 73.0305 63.0203 71.2481 59.2526C70.0765 56.7742 68.8147 55.6549 68.0637 55.0953C66.3814 53.846 65.7405 54.3058 63.5275 53.2664C59.1414 51.2277 58.871 47.9498 55.3262 47.7099C50.089 47.3501 52.312 49.8885 43.55 53.7661C34.7779 57.6536 39.1439 60.242 36.0296 68.4169C34.0869 73.5137 32.7551 76.6417 32.8152 80.0496C32.8552 82.4281 34.0068 85.2063 34.6277 87.0552C35.6291 89.9933 35.9195 89.9433 36.5003 92.082C37.5016 95.7997 36.7806 96.6191 37.9022 99.4873C38.4129 100.797 39.0538 102.445 40.5959 103.835C42.7789 105.793 44.0807 104.854 46.8245 106.783C49.3479 108.562 49.0175 109.901 51.2305 110.82C53.6338 111.82 56.0071 111.08 56.4677 110.92C59.0413 110.061 58.8811 108.542 61.9152 106.573C65.1096 104.504 66.2412 105.574 68.5043 103.565C70.7774 101.556 71.5184 98.8078 71.7688 97.8684C72.4197 95.4599 71.8789 94.6204 72.3396 92.022C72.8002 89.4437 73.8316 87.4449 74.6728 86.1157C75.5139 84.2469 76.4352 81.4187 76.1248 78.0908L76.1348 78.1008Z" stroke="url(#paint7_linear_27_280)" stroke-width="1.36" stroke-miterlimit="10"/>
<path opacity="0.35" d="M71.5984 78.3907C71.3281 75.5525 70.1965 75.1528 69.2152 71.3452C68.2639 67.6275 69.1451 66.4582 67.7331 63.4901C66.8119 61.5313 65.8105 60.6419 65.2197 60.2022C63.8978 59.2128 63.3871 59.5726 61.6347 58.7531C58.17 57.1341 57.9597 54.5557 55.1458 54.3559C51.0001 54.066 52.7625 56.0748 45.833 59.1428C38.9034 62.2109 42.3482 64.2596 39.8848 70.7256C38.3527 74.753 37.2912 77.2315 37.3413 79.9198C37.3713 81.8086 38.2826 83.9972 38.7733 85.4563C39.5644 87.7848 39.7947 87.7349 40.2553 89.4238C41.0464 92.362 40.4756 93.0115 41.3668 95.2801C41.7674 96.3095 42.2781 97.6186 43.4998 98.718C45.2221 100.267 46.2536 99.5274 48.4266 101.046C50.4193 102.456 50.1589 103.515 51.9113 104.244C53.804 105.034 55.6865 104.444 56.0571 104.324C58.0898 103.645 57.9597 102.446 60.363 100.887C62.8864 99.2476 63.7877 100.097 65.5701 98.5081C67.3726 96.9191 67.9534 94.7504 68.1537 94.0009C68.6644 92.0921 68.2438 91.4325 68.6043 89.3738C68.9648 87.3351 69.7859 85.7561 70.4469 84.7068C71.1078 83.2277 71.8488 80.9891 71.5984 78.3608V78.3907Z" stroke="url(#paint8_linear_27_280)" stroke-width="1.27" stroke-miterlimit="10"/>
<path opacity="0.26" d="M67.0722 78.6905C66.8719 76.6018 66.0408 76.312 65.3198 73.5138C64.6188 70.7755 65.2697 69.926 64.2383 67.7374C63.5574 66.2983 62.8264 65.6487 62.3858 65.3189C61.4144 64.5994 61.0339 64.8592 59.7521 64.2596C57.2086 63.0703 57.0484 61.1715 54.9856 61.0316C51.9414 60.8217 53.2332 62.2908 48.1362 64.5494C43.0391 66.808 45.5726 68.307 43.7601 73.064C42.6286 76.0222 41.8575 77.841 41.8876 79.8298C41.9076 81.2189 42.5785 82.8279 42.939 83.8972C43.5198 85.6062 43.69 85.5762 44.0205 86.8154C44.6013 88.974 44.1907 89.4537 44.8316 91.1127C45.132 91.8722 45.5025 92.8316 46.4038 93.6411C47.6755 94.7804 48.4266 94.2307 50.0188 95.36C51.4908 96.3894 51.2905 97.1689 52.5823 97.7085C53.9742 98.2882 55.3561 97.8585 55.6265 97.7685C57.1285 97.2688 57.0284 96.3894 58.7908 95.2401C60.6434 94.0309 61.3043 94.6605 62.6161 93.4912C63.9379 92.3219 64.3685 90.7229 64.5187 90.1833C64.8992 88.7842 64.5788 88.2945 64.8492 86.7854C65.1195 85.2864 65.7204 84.1271 66.201 83.3576C66.6917 82.2683 67.2324 80.6293 67.0422 78.6905H67.0722Z" stroke="url(#paint9_linear_27_280)" stroke-width="1.18" stroke-miterlimit="10"/>
<path opacity="0.18" d="M62.5361 78.9804C62.4059 77.6512 61.8751 77.4613 61.4145 75.6725C60.9639 73.9236 61.3845 73.3739 60.7236 71.9748C60.293 71.0554 59.8223 70.6356 59.5419 70.4258C58.9211 69.9661 58.6807 70.126 57.8596 69.7462C56.2274 68.9867 56.1272 67.7674 54.8054 67.6775C52.8527 67.5476 53.6839 68.487 50.4294 69.9261C47.1749 71.3652 48.7871 72.3346 47.6355 75.3727C46.9146 77.2715 46.4139 78.4307 46.4439 79.6999C46.4639 80.5894 46.8845 81.6187 47.1148 82.3083C47.4853 83.3976 47.5955 83.3776 47.8058 84.1771C48.1763 85.5563 47.9159 85.8661 48.3265 86.9254C48.5168 87.4151 48.7571 88.0247 49.3279 88.5444C50.139 89.2739 50.6197 88.9241 51.6411 89.6437C52.5824 90.3033 52.4522 90.8029 53.2833 91.1427C54.1745 91.5125 55.0558 91.2327 55.226 91.1827C56.1873 90.8629 56.1172 90.3033 57.2488 89.5637C58.4404 88.7942 58.861 89.194 59.7022 88.4444C60.5433 87.6949 60.8237 86.6755 60.9138 86.3258C61.1542 85.4263 60.9539 85.1165 61.1241 84.1471C61.2943 83.1877 61.6749 82.4482 61.9953 81.9485C62.3057 81.249 62.6562 80.1996 62.5361 78.9604V78.9804Z" stroke="url(#paint10_linear_27_280)" stroke-width="1.09" stroke-miterlimit="10"/>
<path opacity="0.1" d="M58.0097 79.2701C57.9497 78.6905 57.7193 78.6105 57.5191 77.821C57.3188 77.0615 57.5091 76.8216 57.2187 76.212C57.0284 75.8123 56.8281 75.6324 56.6979 75.5325C56.4276 75.3326 56.3174 75.4025 55.9569 75.2326C55.2459 74.9028 55.2059 74.3732 54.6251 74.3332C53.7739 74.2732 54.1344 74.683 52.7125 75.3126C51.2905 75.9422 52.0015 76.3619 51.4908 77.6911C51.1803 78.5206 50.96 79.0302 50.9701 79.5799C50.9701 79.9697 51.1603 80.4194 51.2605 80.7192C51.4207 81.1989 51.4707 81.1889 51.5609 81.5387C51.7211 82.1383 51.6109 82.2782 51.7912 82.7379C51.8713 82.9478 51.9814 83.2176 52.2318 83.4475C52.5823 83.7673 52.7926 83.6174 53.2432 83.9272C53.6537 84.217 53.6037 84.4368 53.9542 84.5868C54.3447 84.7467 54.7252 84.6267 54.8053 84.6067C55.2259 84.4668 55.1959 84.217 55.6865 83.8972C56.2073 83.5574 56.3875 83.7373 56.758 83.4075C57.1285 83.0777 57.2487 82.638 57.2887 82.4881C57.3989 82.0983 57.3088 81.9584 57.3789 81.5387C57.449 81.1189 57.6192 80.7991 57.7594 80.5793C57.8996 80.2795 58.0498 79.8198 57.9997 79.2801L58.0097 79.2701Z" stroke="url(#paint11_linear_27_280)" stroke-miterlimit="10"/>
</g>
<defs>
<linearGradient id="paint0_linear_27_280" x1="6.3987" y1="127.19" x2="101.898" y2="31.4985" gradientUnits="userSpaceOnUse">
<stop stop-color="#946AFF"/>
<stop offset="0.1" stop-color="#A455EF"/>
<stop offset="0.24" stop-color="#B73EDD"/>
<stop offset="0.37" stop-color="#C32FD2"/>
<stop offset="0.48" stop-color="#C72BCF"/>
<stop offset="0.62" stop-color="#D44CAF"/>
<stop offset="0.93" stop-color="#F6A261"/>
<stop offset="1" stop-color="#FFB94D"/>
</linearGradient>
<linearGradient id="paint1_linear_27_280" x1="10.4645" y1="123.162" x2="97.8994" y2="35.5521" gradientUnits="userSpaceOnUse">
<stop stop-color="#946AFF"/>
<stop offset="0.1" stop-color="#A455EF"/>
<stop offset="0.24" stop-color="#B73EDD"/>
<stop offset="0.37" stop-color="#C32FD2"/>
<stop offset="0.48" stop-color="#C72BCF"/>
<stop offset="0.62" stop-color="#D44CAF"/>
<stop offset="0.93" stop-color="#F6A261"/>
<stop offset="1" stop-color="#FFB94D"/>
</linearGradient>
<linearGradient id="paint2_linear_27_280" x1="14.52" y1="119.145" x2="93.9099" y2="39.5956" gradientUnits="userSpaceOnUse">
<stop stop-color="#946AFF"/>
<stop offset="0.1" stop-color="#A455EF"/>
<stop offset="0.24" stop-color="#B73EDD"/>
<stop offset="0.37" stop-color="#C32FD2"/>
<stop offset="0.48" stop-color="#C72BCF"/>
<stop offset="0.62" stop-color="#D44CAF"/>
<stop offset="0.93" stop-color="#F6A261"/>
<stop offset="1" stop-color="#FFB94D"/>
</linearGradient>
<linearGradient id="paint3_linear_27_280" x1="18.5755" y1="115.118" x2="89.9105" y2="43.6493" gradientUnits="userSpaceOnUse">
<stop stop-color="#946AFF"/>
<stop offset="0.1" stop-color="#A455EF"/>
<stop offset="0.24" stop-color="#B73EDD"/>
<stop offset="0.37" stop-color="#C32FD2"/>
<stop offset="0.48" stop-color="#C72BCF"/>
<stop offset="0.62" stop-color="#D44CAF"/>
<stop offset="0.93" stop-color="#F6A261"/>
<stop offset="1" stop-color="#FFB94D"/>
</linearGradient>
<linearGradient id="paint4_linear_27_280" x1="22.6312" y1="111.1" x2="85.9112" y2="47.6931" gradientUnits="userSpaceOnUse">
<stop stop-color="#946AFF"/>
<stop offset="0.1" stop-color="#A455EF"/>
<stop offset="0.24" stop-color="#B73EDD"/>
<stop offset="0.37" stop-color="#C32FD2"/>
<stop offset="0.48" stop-color="#C72BCF"/>
<stop offset="0.62" stop-color="#D44CAF"/>
<stop offset="0.93" stop-color="#F6A261"/>
<stop offset="1" stop-color="#FFB94D"/>
</linearGradient>
<linearGradient id="paint5_linear_27_280" x1="26.6867" y1="107.083" x2="81.9119" y2="51.7465" gradientUnits="userSpaceOnUse">
<stop stop-color="#946AFF"/>
<stop offset="0.1" stop-color="#A455EF"/>
<stop offset="0.24" stop-color="#B73EDD"/>
<stop offset="0.37" stop-color="#C32FD2"/>
<stop offset="0.48" stop-color="#C72BCF"/>
<stop offset="0.62" stop-color="#D44CAF"/>
<stop offset="0.93" stop-color="#F6A261"/>
<stop offset="1" stop-color="#FFB94D"/>
</linearGradient>
<linearGradient id="paint6_linear_27_280" x1="30.7422" y1="103.055" x2="77.9124" y2="55.7903" gradientUnits="userSpaceOnUse">
<stop stop-color="#946AFF"/>
<stop offset="0.1" stop-color="#A455EF"/>
<stop offset="0.24" stop-color="#B73EDD"/>
<stop offset="0.37" stop-color="#C32FD2"/>
<stop offset="0.48" stop-color="#C72BCF"/>
<stop offset="0.62" stop-color="#D44CAF"/>
<stop offset="0.93" stop-color="#F6A261"/>
<stop offset="1" stop-color="#FFB94D"/>
</linearGradient>
<linearGradient id="paint7_linear_27_280" x1="34.7979" y1="99.0376" x2="73.9132" y2="59.8438" gradientUnits="userSpaceOnUse">
<stop stop-color="#946AFF"/>
<stop offset="0.1" stop-color="#A455EF"/>
<stop offset="0.24" stop-color="#B73EDD"/>
<stop offset="0.37" stop-color="#C32FD2"/>
<stop offset="0.48" stop-color="#C72BCF"/>
<stop offset="0.62" stop-color="#D44CAF"/>
<stop offset="0.93" stop-color="#F6A261"/>
<stop offset="1" stop-color="#FFB94D"/>
</linearGradient>
<linearGradient id="paint8_linear_27_280" x1="38.8534" y1="95.0103" x2="69.9138" y2="63.8875" gradientUnits="userSpaceOnUse">
<stop stop-color="#946AFF"/>
<stop offset="0.1" stop-color="#A455EF"/>
<stop offset="0.24" stop-color="#B73EDD"/>
<stop offset="0.37" stop-color="#C32FD2"/>
<stop offset="0.48" stop-color="#C72BCF"/>
<stop offset="0.62" stop-color="#D44CAF"/>
<stop offset="0.93" stop-color="#F6A261"/>
<stop offset="1" stop-color="#FFB94D"/>
</linearGradient>
<linearGradient id="paint9_linear_27_280" x1="42.909" y1="90.9928" x2="65.9245" y2="67.9411" gradientUnits="userSpaceOnUse">
<stop stop-color="#946AFF"/>
<stop offset="0.1" stop-color="#A455EF"/>
<stop offset="0.24" stop-color="#B73EDD"/>
<stop offset="0.37" stop-color="#C32FD2"/>
<stop offset="0.48" stop-color="#C72BCF"/>
<stop offset="0.62" stop-color="#D44CAF"/>
<stop offset="0.93" stop-color="#F6A261"/>
<stop offset="1" stop-color="#FFB94D"/>
</linearGradient>
<linearGradient id="paint10_linear_27_280" x1="46.9746" y1="86.9654" x2="61.9252" y2="71.9848" gradientUnits="userSpaceOnUse">
<stop stop-color="#946AFF"/>
<stop offset="0.1" stop-color="#A455EF"/>
<stop offset="0.24" stop-color="#B73EDD"/>
<stop offset="0.37" stop-color="#C32FD2"/>
<stop offset="0.48" stop-color="#C72BCF"/>
<stop offset="0.62" stop-color="#D44CAF"/>
<stop offset="0.93" stop-color="#F6A261"/>
<stop offset="1" stop-color="#FFB94D"/>
</linearGradient>
<linearGradient id="paint11_linear_27_280" x1="51.0301" y1="82.9478" x2="57.9258" y2="76.0383" gradientUnits="userSpaceOnUse">
<stop stop-color="#946AFF"/>
<stop offset="0.1" stop-color="#A455EF"/>
<stop offset="0.24" stop-color="#B73EDD"/>
<stop offset="0.37" stop-color="#C32FD2"/>
<stop offset="0.48" stop-color="#C72BCF"/>
<stop offset="0.62" stop-color="#D44CAF"/>
<stop offset="0.93" stop-color="#F6A261"/>
<stop offset="1" stop-color="#FFB94D"/>
</linearGradient>
<clipPath id="clip0_27_280">
<rect width="109" height="159" fill="white"/>
</clipPath>
</defs>
</svg>
